<svg className="mx-auto mb-2" xmlns="http://www.w3.org/2000/svg" viewBox="0 0 38 38" fill="none">
  <path
    d="M15.3764 6.95231C15.5158 6.95231 15.6203 6.87102 15.6552 6.70842C15.9455 5.01276 15.9455 5.00114 17.6644 4.68756C17.8386 4.6411 17.9315 4.54819 17.9315 4.39721C17.9315 4.24622 17.8386 4.15331 17.676 4.11847C15.9455 3.77005 15.9804 3.75843 15.6552 2.09761C15.6203 1.93502 15.5274 1.8421 15.3764 1.8421C15.2254 1.8421 15.1209 1.94663 15.0977 2.09761C14.7493 3.78166 14.7957 3.79327 13.0652 4.11847C12.9026 4.1417 12.8097 4.25784 12.8097 4.39721C12.8097 4.53658 12.9026 4.6411 13.0652 4.68756C14.7957 5.02437 14.7841 5.01276 15.0977 6.70842C15.1209 6.8594 15.2254 6.95231 15.3764 6.95231ZM23.4598 10.0533C23.6689 10.0533 23.8199 9.91391 23.8431 9.69325C24.1683 7.01039 24.2844 6.92909 27.0254 6.48775C27.2693 6.46452 27.4086 6.33677 27.4086 6.10448C27.4086 5.91866 27.2693 5.76767 27.0718 5.74445C24.3077 5.19858 24.1683 5.22181 23.8431 2.53895C23.8199 2.31828 23.6689 2.17891 23.4598 2.17891C23.2624 2.17891 23.1114 2.31828 23.0882 2.52734C22.7282 5.26827 22.6585 5.33795 19.8595 5.74445C19.662 5.75606 19.511 5.91866 19.511 6.10448C19.511 6.32515 19.6504 6.46452 19.8595 6.48775C22.6585 7.04523 22.7282 7.03361 23.0882 9.71647C23.1114 9.91391 23.2624 10.0533 23.4598 10.0533ZM15.539 8.96156C15.3532 9.12415 15.2254 9.33321 15.1325 9.54226C14.1686 8.86864 13.0188 8.98479 12.1361 9.86746C11.8225 10.181 11.6367 10.5643 11.6018 10.9708C10.603 10.3088 9.52291 10.3901 8.67507 11.2379C7.85047 12.0509 7.76917 13.1659 8.39634 14.1415C8.01307 14.1647 7.65303 14.3505 7.37429 14.6176C6.43355 15.57 6.44516 16.8708 7.42075 17.8464L8.18728 18.6013C7.78079 18.6129 7.38591 18.8103 7.07233 19.1239C6.13158 20.0647 6.16643 21.4351 7.16524 22.4339L14.3544 29.6231C17.5366 32.8053 21.2996 33.4441 24.5516 31.7136C26.526 31.6439 28.4655 30.7613 30.1496 29.0888C33.1809 26.0459 33.6803 22.283 31.6246 17.9393L28.9766 12.3529C28.4655 11.2728 27.6061 10.634 26.5492 10.6456C25.9801 10.6456 25.0161 10.9476 24.598 11.8419C23.7734 11.3192 22.763 11.3889 21.9849 12.0161L18.942 8.98479C17.8967 7.9279 16.5727 7.96274 15.539 8.96156ZM21.8455 16.1972L16.4333 10.785C16.4681 10.6572 16.5378 10.5527 16.6424 10.4482C16.9559 10.1346 17.3973 10.1578 17.7341 10.483L21.1951 13.9556C21.2183 14.1531 21.2764 14.3621 21.3577 14.5712L21.9849 16.0926C22.0081 16.1391 22.0081 16.1739 21.9732 16.2088C21.9384 16.2436 21.8919 16.232 21.8455 16.1972ZM25.4575 28.5778C22.5191 31.5162 18.8374 31.4465 15.5506 28.1481L8.65185 21.2609C8.34988 20.9473 8.32665 20.5292 8.62862 20.2273C8.93059 19.9253 9.36031 19.9253 9.67389 20.2389L13.9014 24.4664C14.2499 24.8264 14.7957 24.7916 15.1209 24.4664C15.4577 24.1296 15.4926 23.5837 15.1325 23.2353L8.79122 16.894C8.47763 16.5804 8.46602 16.1623 8.76799 15.8603C9.05834 15.5584 9.49968 15.5584 9.80164 15.872L15.7248 21.7835C16.0733 22.1436 16.6191 22.1087 16.9443 21.7835C17.2695 21.4467 17.316 20.9125 16.9559 20.5524L9.99908 13.5956C9.69712 13.2936 9.6855 12.8523 9.97586 12.5503C10.2778 12.26 10.7075 12.2716 11.0211 12.5852L17.8735 19.4375C18.2103 19.7743 18.7561 19.7627 19.0929 19.4259C19.4297 19.0891 19.453 18.5432 19.1046 18.1948L13.2975 12.3877C12.9839 12.0741 12.9723 11.656 13.2743 11.3541C13.5762 11.0521 14.006 11.0637 14.3079 11.3657L22.4959 19.5536C22.9721 20.0298 23.5528 19.995 23.936 19.6001C24.2612 19.2749 24.4122 18.8219 24.1683 18.1948L22.7049 14.3621C22.5307 13.8976 22.7049 13.5259 23.0534 13.3633C23.4366 13.1891 23.7967 13.3633 24.0173 13.8511L26.7002 19.5885C28.4771 23.3979 27.8384 26.1853 25.4575 28.5778ZM28.3842 18.7871L25.8988 13.5491C25.8756 13.4562 25.864 13.3633 25.864 13.2588C25.864 12.9104 26.1311 12.5852 26.584 12.5852C26.8628 12.5852 27.1531 12.7826 27.3041 13.1078L29.9405 18.7406C31.7175 22.5385 31.0903 25.3375 28.6978 27.7184C28.6281 27.7764 28.5701 27.8461 28.5004 27.9042C30.0451 25.2678 30.0102 22.2133 28.3842 18.7871ZM8.51248 33.4093C8.6983 33.4093 8.81444 33.2931 8.83767 33.1073C9.24417 30.8309 9.23255 30.7845 11.6018 30.3432C11.7993 30.3083 11.9154 30.2038 11.9154 30.018C11.9154 29.8205 11.7993 29.716 11.6134 29.6811C9.23255 29.205 9.27901 29.1701 8.83767 26.917C8.81444 26.7312 8.6983 26.615 8.51248 26.615C8.33827 26.615 8.22212 26.7312 8.18728 26.917C7.74595 29.1817 7.81563 29.2282 5.42312 29.6811C5.2373 29.716 5.12115 29.8205 5.12115 30.018C5.12115 30.2038 5.2373 30.3083 5.42312 30.3432C7.81563 30.8193 7.76917 30.8426 8.18728 33.1073C8.22212 33.2931 8.33827 33.4093 8.51248 33.4093Z"
    fill="white" />
</svg>