<svg className="mx-auto mb-2" xmlns="http://www.w3.org/2000/svg" viewBox="0 0 36 37" fill="none">
  <path
    d="M32.22 20.5602C31.8348 20.2635 31.3862 20.0599 30.9093 19.9652C30.4324 19.8706 29.9401 19.8874 29.4708 20.0145L28.8633 20.1552C31.9219 17.3117 33.4688 14.4936 33.4688 11.75C33.4688 8.18375 30.6014 5.28125 27.0759 5.28125C26.0817 5.27502 25.0996 5.50054 24.2077 5.93991C23.3158 6.37928 22.5385 7.02043 21.9375 7.8125C21.3365 7.02043 20.5592 6.37928 19.6673 5.93991C18.7754 5.50054 17.7933 5.27502 16.7991 5.28125C13.2736 5.28125 10.4063 8.18375 10.4063 11.75C10.4063 13.3503 10.9167 14.9127 11.9939 16.5819C11.1109 16.7181 10.2948 17.1335 9.66516 17.7673L6.40125 21.0313H2.25C1.72786 21.0313 1.2271 21.2387 0.857884 21.6079C0.488671 21.9771 0.28125 22.4779 0.28125 23V28.625C0.28125 29.1472 0.488671 29.6479 0.857884 30.0171C1.2271 30.3863 1.72786 30.5938 2.25 30.5938H16.875C16.9442 30.5938 17.0132 30.5853 17.0803 30.5684L26.0803 28.3184C26.1229 28.3071 26.1647 28.293 26.2055 28.2763L31.6645 25.9531L31.7109 25.932C32.1936 25.691 32.607 25.331 32.9121 24.8861C33.2172 24.4411 33.404 23.9258 33.455 23.3887C33.5059 22.8516 33.4192 22.3104 33.2032 21.816C32.9871 21.3217 32.6488 20.8904 32.22 20.563V20.5602ZM16.7991 6.96875C17.727 6.95637 18.6375 7.22115 19.4141 7.72919C20.1907 8.23724 20.7981 8.96544 21.1584 9.82063C21.222 9.97538 21.3301 10.1077 21.4691 10.2009C21.6081 10.294 21.7716 10.3438 21.9389 10.3438C22.1062 10.3438 22.2697 10.294 22.4087 10.2009C22.5477 10.1077 22.6558 9.97538 22.7194 9.82063C23.0798 8.96544 23.6871 8.23724 24.4637 7.72919C25.2403 7.22115 26.1508 6.95637 27.0788 6.96875C29.6269 6.96875 31.7813 9.15828 31.7813 11.75C31.7813 14.5963 29.5059 17.7969 25.2 20.9961L23.1089 21.477C23.3175 20.9237 23.3887 20.3281 23.3165 19.7412C23.2443 19.1543 23.0309 18.5937 22.6945 18.1074C22.3581 17.6211 21.9088 17.2237 21.385 16.9491C20.8613 16.6746 20.2788 16.5312 19.6875 16.5313H14.0161C12.7069 14.7973 12.0938 13.2702 12.0938 11.75C12.0938 9.15828 14.2481 6.96875 16.7991 6.96875ZM1.96875 28.625V23C1.96875 22.9254 1.99838 22.8539 2.05113 22.8011C2.10387 22.7484 2.17541 22.7188 2.25 22.7188H5.90625V28.9063H2.25C2.17541 28.9063 2.10387 28.8766 2.05113 28.8239C1.99838 28.7711 1.96875 28.6996 1.96875 28.625ZM30.9769 24.4063L25.605 26.6942L16.7709 28.9063H7.59375V22.2252L10.8577 18.9598C11.0922 18.7241 11.3712 18.5372 11.6785 18.4099C11.9858 18.2827 12.3152 18.2178 12.6478 18.2188H19.6875C20.2096 18.2188 20.7104 18.4262 21.0796 18.7954C21.4488 19.1646 21.6563 19.6654 21.6563 20.1875C21.6563 20.7096 21.4488 21.2104 21.0796 21.5796C20.7104 21.9488 20.2096 22.1563 19.6875 22.1563H15.75C15.5262 22.1563 15.3116 22.2451 15.1534 22.4034C14.9951 22.5616 14.9063 22.7762 14.9063 23C14.9063 23.2238 14.9951 23.4384 15.1534 23.5966C15.3116 23.7549 15.5262 23.8438 15.75 23.8438H20.25C20.3134 23.8438 20.3766 23.8368 20.4384 23.8227L29.8603 21.6556L29.8941 21.6472C30.2487 21.5505 30.6265 21.5883 30.955 21.7532C31.2835 21.9181 31.5394 22.1986 31.6737 22.5408C31.808 22.8829 31.8111 23.2626 31.6825 23.6069C31.5539 23.9513 31.3026 24.2359 30.9769 24.4063Z"
    fill="white" />
</svg>