<svg className="mx-auto mb-2" xmlns="http://www.w3.org/2000/svg" viewBox="0 0 32 27" fill="none">
  <path
    d="M0.190782 24.1255C-0.281632 25.1688 0.10599 26.476 1.54746 26.476C2.05621 26.476 2.46806 26.2721 3.13428 25.7325L6.41696 23.0341C6.53809 22.9382 6.61077 22.9022 6.65922 22.9022C6.71979 22.9022 6.79247 22.9382 6.9136 23.0341L10.1963 25.7325C10.8625 26.2721 11.2865 26.476 11.7831 26.476C13.2246 26.476 13.6122 25.1688 13.1398 24.1255L7.70096 11.9769V6.34041C7.70096 3.5941 8.16126 1.54336 8.16126 1.13561C8.16126 0.763838 7.91899 0.5 7.53137 0.5C7.28911 0.5 7.07107 0.631919 6.76824 0.979705L4.067 4.02583C3.81262 4.33764 3.8853 4.7214 4.22447 4.8893C5.30254 5.34502 5.64171 5.51292 5.64171 6.34041V11.953L0.190782 24.1255ZM15.3807 15.5507C15.9743 15.5507 16.374 15.2389 16.6284 14.7712C16.8827 15.2389 17.2825 15.5507 17.8881 15.5507C19.0631 15.5507 19.3781 14.1956 19.8626 14.1956C19.9474 14.1956 20.0201 14.2675 20.0201 14.3635C20.0201 15.2749 19.1964 16.0184 19.1964 17.2777C19.1964 18.6089 20.6863 19.3404 20.6863 21.547C20.6863 23.6937 19.16 24.9769 16.6284 24.9769C15.6593 24.9769 14.8235 24.7851 14.0725 24.4373C14.2057 25.0369 14.1694 25.5046 13.9514 25.9843C14.8114 26.3321 15.6957 26.5 16.6284 26.5C19.9837 26.5 22.2125 24.5212 22.2125 21.547C22.2125 19.0886 20.7105 18.0932 20.7105 17.2657C20.7105 16.2943 21.5463 15.5627 21.5463 14.3155C21.5463 13.3921 20.9043 12.7205 20.0201 12.7205C19.269 12.7205 18.833 13.1522 18.5301 13.548C18.2758 13.8598 18.1062 14.0876 17.9366 14.0876C17.7186 14.0876 17.6459 13.7518 17.6338 13.2362L17.6459 5.80074C17.6459 5.50092 17.658 5.46494 17.8397 5.40498C18.1183 5.29705 18.2152 5.14114 18.2637 4.75738L18.5059 2.26292C18.518 2.02306 18.4211 1.78321 18.2273 1.60332L17.1735 0.703875C17.0281 0.571956 16.8343 0.5 16.6284 0.5C16.4103 0.5 16.2286 0.571956 16.0833 0.703875L15.0294 1.60332C14.8356 1.77122 14.7387 2.03506 14.7508 2.26292L14.9931 4.75738C15.0294 5.12915 15.1384 5.29705 15.4292 5.40498C15.5866 5.45295 15.6109 5.50092 15.6109 5.80074L15.6351 13.2601C15.6351 13.6799 15.5382 14.0876 15.3323 14.0876C15.1627 14.0876 14.9931 13.8478 14.7266 13.548C14.4238 13.1522 13.9877 12.7325 13.2488 12.7325C12.3524 12.7325 11.7104 13.3801 11.7104 14.3155C11.7104 15.5627 12.5462 16.2943 12.5462 17.2657C12.5462 17.6854 12.1102 18.2011 11.7225 18.9686L12.631 20.9834C12.8248 19.1965 14.0604 18.4889 14.0604 17.2777C14.0604 16.0184 13.2488 15.2749 13.2488 14.3635C13.2488 14.2675 13.3094 14.1956 13.3942 14.1956C13.8787 14.1956 14.1936 15.5507 15.3807 15.5507ZM26.4279 26.428C29.8317 26.428 32 24.809 32 22.2546C32 19.7482 30.3647 19.1845 30.3647 18.1052C30.3647 17.3256 30.7281 16.5941 30.7281 15.5507C30.7281 13.8598 29.5047 12.7804 27.4576 12.5166V5.33303C27.4576 4.86531 27.506 4.75738 27.7725 4.5655C28.039 4.3976 28.1359 4.2417 28.1238 3.98985L27.93 1.00369C27.9179 0.703875 27.6998 0.5 27.4333 0.5H25.4225C25.1561 0.5 24.938 0.703875 24.9259 1.00369L24.7442 3.98985C24.72 4.2297 24.829 4.3976 25.0955 4.5655C25.362 4.76937 25.4104 4.87731 25.4104 5.33303V12.5166C23.3512 12.7804 22.1278 13.8718 22.1278 15.5507C22.1278 16.5341 22.4912 17.2537 22.4912 18.0092C22.4912 18.1531 22.4548 18.321 22.2973 18.6089C22.5638 19.1245 22.7819 19.6882 22.9151 20.3478C23.436 19.6762 24.0174 18.9686 24.0174 18.0812C24.0174 17.2297 23.654 16.3423 23.654 15.5507C23.654 14.3515 24.72 13.9077 26.4279 13.9077C28.1117 13.9077 29.214 14.3275 29.214 15.5507C29.214 16.3423 28.8385 17.2297 28.8385 18.0812C28.8385 19.5803 30.4859 20.3358 30.4859 22.2546C30.4859 23.9336 28.9838 24.941 26.4279 24.941C24.6473 24.941 23.3512 24.4373 22.6971 23.5258C22.5154 24.1015 22.2731 24.5332 21.9703 24.953C22.9636 25.9244 24.5262 26.428 26.4279 26.428ZM1.59591 24.5932L6.65922 13.1762L11.7346 24.5932C11.8437 24.869 11.6256 25.0129 11.4318 24.845L7.70096 21.7509C7.30122 21.4271 6.96205 21.2712 6.65922 21.2712C6.36851 21.2712 6.02934 21.4271 5.6296 21.7509L1.91085 24.845C1.70493 25.0129 1.48689 24.869 1.59591 24.5932ZM26.4279 19.0766C27.1668 19.0766 27.7604 18.4769 27.7604 17.7574C27.7604 17.0378 27.1668 16.4262 26.4279 16.4262C25.7011 16.4262 25.0955 17.0258 25.0955 17.7574C25.0955 18.4889 25.689 19.0766 26.4279 19.0766ZM14.2663 21.3192C14.5449 21.4271 14.8598 21.2592 14.9568 20.9954L15.8774 18.357C15.9743 18.0812 15.8289 17.7694 15.5503 17.6854C15.2717 17.5775 14.9689 17.7334 14.8598 18.0092L13.9392 20.6596C13.8423 20.9114 13.9877 21.2232 14.2663 21.3192ZM18.9783 21.3192C19.2569 21.2472 19.4144 20.9234 19.3175 20.6596L18.3848 18.0092C18.2879 17.7454 17.9972 17.5895 17.7064 17.6854C17.44 17.7574 17.2825 18.0812 17.3794 18.357L18.3 20.9954C18.3969 21.2592 18.6997 21.4151 18.9783 21.3192ZM7.82209 18.9686C8.16126 18.9686 8.43986 18.7048 8.43986 18.369C8.43986 18.0332 8.16126 17.7574 7.82209 17.7574C7.49503 17.7574 7.20431 18.0452 7.20431 18.369C7.20431 18.6928 7.49503 18.9686 7.82209 18.9686ZM8.48831 20.5277C8.82748 20.5277 9.1182 20.2518 9.1182 19.9161C9.1182 19.5803 8.82748 19.2924 8.48831 19.2924C8.16126 19.2924 7.87054 19.5923 7.87054 19.9161C7.87054 20.2518 8.16126 20.5277 8.48831 20.5277ZM9.15454 22.0747C9.49371 22.0747 9.78442 21.7869 9.78442 21.4631C9.78442 21.1273 9.49371 20.8515 9.15454 20.8515C8.83959 20.8515 8.54888 21.1393 8.54888 21.4631C8.54888 21.7869 8.82748 22.0747 9.15454 22.0747ZM24.9138 22.5065H27.9421C28.2449 22.5065 28.4993 22.2666 28.4993 21.9548C28.4993 21.643 28.2449 21.4031 27.9421 21.4031H24.9138C24.5988 21.4031 24.3445 21.655 24.3445 21.9548C24.3445 22.2666 24.5867 22.5065 24.9138 22.5065Z"
    fill="white" />
</svg>