<svg width="500" height="500" viewBox="0 0 500 500" fill="none" xmlns="http://www.w3.org/2000/svg">
<circle cx="250" cy="250" r="250" fill="black"/>
<path d="M232.044 420.332C195.147 424.417 155.433 408.925 150.786 367.099C144.449 310.627 196.837 249.366 229.368 207.822L228.101 206.695C220.355 210.075 209.652 215.004 201.203 215.99C183.317 217.962 168.39 212.188 157.968 213.314C138.956 215.427 144.167 234.157 136.844 235.002C129.521 235.847 125.296 220.074 124.592 214.582C121.775 188.81 134.591 159.94 162.897 156.842C193.598 153.462 205.428 180.642 227.538 178.248C240.494 176.84 243.17 167.827 245.282 159.518C247.958 150.505 250.07 142.055 261.196 140.787C269.223 139.942 274.152 145.576 274.997 153.04C276.969 170.221 220.074 263.027 227.96 333.019C230.495 355.833 247.254 377.661 271.899 374.845C319.781 369.493 347.805 291.052 338.652 226.693C335.413 202.752 327.808 179.375 326.259 165.292C324.71 151.209 330.765 133.042 349.777 130.929C375.549 127.972 386.815 150.505 389.209 172.474C399.067 262.323 333.3 409.066 232.044 420.332Z" fill="white"/>
<path d="M109.946 110.791L115.861 110.087L116.283 113.185H116.424C117.691 110.65 120.226 108.96 123.043 108.678C125.859 108.115 128.676 109.382 130.225 111.776C131.493 109.242 133.887 107.552 136.844 107.129C141.773 106.566 145.575 108.537 146.28 114.452L147.97 129.943L141.632 130.648L140.224 117.55C139.801 114.452 139.379 111.917 135.717 112.34C132.056 112.762 131.774 115.72 132.056 118.677L133.464 131.633L127.127 132.337L125.719 119.381C125.296 116.706 125.155 113.607 121.071 114.03C119.804 114.171 116.846 115.297 117.41 119.804L118.959 133.182L112.622 133.887L109.946 110.791Z" fill="white"/>
<path d="M166.418 118.818C166.559 120.226 166.841 124.17 161.912 124.733C159.799 125.014 157.968 124.592 157.687 122.198C157.405 119.804 159.095 118.959 161.067 118.396C163.038 117.832 165.292 117.551 166.277 116.424L166.418 118.818ZM157.264 112.622C157.264 110.087 158.673 108.96 161.067 108.678C163.461 108.397 165.151 108.678 165.573 111.354C165.996 114.03 162.193 114.171 158.391 115.156C154.589 116.142 150.645 117.832 151.35 123.043C151.913 127.831 155.574 129.662 160.081 129.099C163.038 128.958 165.714 127.549 167.545 125.296C167.686 126 167.967 126.845 168.249 127.549L174.727 126.845C173.882 125.296 173.46 123.606 173.319 121.775L171.91 109.664C171.347 104.172 165.714 103.749 161.067 104.172C155.856 104.735 150.786 107.129 151.068 113.185L157.264 112.622Z" fill="white"/>
<path d="M176.135 103.327L182.191 102.623L182.613 106.988H182.754C183.74 103.89 186.416 101.637 189.514 101.214C189.936 101.214 190.5 101.214 190.922 101.214L191.626 107.129C190.922 106.988 190.077 106.988 189.373 107.129C184.726 107.692 183.458 111.213 183.881 115.297L185.007 125.719L178.67 126.423L176.135 103.327Z" fill="white"/>
<path d="M197.541 97.9755L193.176 98.398L196.696 91.6382L203.738 90.7932L197.541 97.9755ZM193.598 101.355L199.935 100.651L202.47 123.888L196.133 124.592L193.598 101.355Z" fill="white"/>
<path d="M221.06 112.622C221.201 114.03 221.482 117.973 216.553 118.536C214.441 118.818 212.61 118.396 212.328 116.001C212.047 113.607 213.737 112.762 215.708 112.199C217.68 111.636 219.933 111.354 220.919 110.228L221.06 112.622ZM211.906 106.566C211.906 104.031 213.314 102.904 215.708 102.623C218.102 102.341 219.933 102.623 220.215 105.299C220.496 107.974 216.835 108.115 213.032 109.242C209.23 110.368 205.287 111.917 205.85 117.128C206.414 121.916 210.075 123.747 214.441 123.184C217.398 123.043 220.074 121.635 221.905 119.522C222.046 120.226 222.186 121.071 222.609 121.635L229.087 120.931C228.242 119.381 227.819 117.691 227.679 115.861L226.27 103.89C225.707 98.3979 220.074 97.9754 215.427 98.3979C210.216 98.9612 205.146 101.355 205.428 107.411L211.906 106.566Z" fill="white"/>
<path d="M252.183 106.566C252.746 111.354 251.056 116.706 245.705 117.269C239.649 117.973 236.973 113.044 236.41 108.256C235.847 103.045 237.255 98.2572 243.451 97.553C248.944 96.9897 251.76 101.778 252.183 106.566ZM235.988 128.817L238.804 128.535L237.396 115.579H237.537C239.227 118.677 242.606 120.226 246.127 119.663C253.169 118.818 255.844 112.763 255.14 106.284C254.436 99.8063 250.352 94.4548 243.311 95.2998C239.79 95.5814 236.692 97.9755 235.706 101.355H235.565L235.002 96.9897L232.467 97.2714L235.988 128.817Z" fill="white"/>
<path d="M260.914 104.031C260.914 99.8062 263.027 95.4405 267.533 94.8772C272.04 94.3139 275.138 97.9754 275.842 102.2L260.914 104.031ZM278.94 104.313C278.377 97.8346 274.715 91.6381 267.251 92.4831C259.788 93.3281 257.534 99.8062 258.238 105.862C258.943 112.481 262.745 117.691 270.068 116.846C275.842 116.142 278.659 112.762 279.222 107.411L276.405 107.693C275.842 111.354 273.87 114.03 269.786 114.452C264.294 115.016 261.618 110.368 261.196 106.284L278.94 104.313Z" fill="white"/>
<path d="M296.826 81.2168C296.685 83.3292 295.699 85.7233 293.446 85.8641C292.319 85.8641 291.052 85.7233 289.925 85.3008C289.08 84.8783 288.094 84.5967 287.108 84.5967C285.841 84.5967 284.855 85.5825 284.996 86.8499C284.996 86.9908 284.996 86.9908 284.996 87.1316L283.306 87.2724C283.306 85.16 284.433 82.7659 286.827 82.4843C287.953 82.3434 289.221 82.6251 290.347 83.0476C291.192 83.4701 292.178 83.7517 293.164 83.7517C294.572 83.6109 294.995 82.4843 295.276 81.3576L296.826 81.2168ZM281.334 91.6381L284.151 91.3565L284.574 95.2997H284.714C285.7 92.2014 288.376 90.089 291.615 89.8073C298.093 89.1032 300.487 92.3423 301.05 97.8346L302.74 112.622L299.924 112.903L298.234 98.5387C297.811 94.5955 296.121 91.779 291.615 92.2014C287.108 92.6239 284.855 96.4263 285.278 100.933L286.827 114.452L284.01 114.734L281.334 91.6381Z" fill="white"/>
<path d="M321.752 101.496C322.316 106.003 318.795 109.101 314.57 109.664C311.894 110.087 309.5 108.397 308.937 105.862V105.721C308.374 101.215 314.429 100.51 319.077 99.243C319.922 98.9613 321.048 98.6796 321.33 97.9755L321.752 101.496ZM308.796 95.7222C308.514 91.9199 310.908 90.0891 314.288 89.6666C317.668 89.2441 320.485 89.9483 320.907 93.7506C321.189 96.2855 319.922 96.708 317.668 97.2713C311.613 98.6796 305.416 99.6654 306.12 106.144C306.684 110.791 310.345 112.481 314.57 112.058C318.091 111.918 321.189 109.664 322.456 106.425H322.597C322.879 108.819 323.442 110.368 326.4 110.087C326.963 109.946 327.667 109.946 328.23 109.664L327.949 107.27C327.667 107.411 327.385 107.552 327.104 107.552C326.259 107.693 325.414 107.27 325.273 106.425C325.273 106.284 325.273 106.144 325.273 106.003L323.865 93.7506C323.161 87.5542 318.654 86.85 314.57 87.2725C309.219 87.8358 305.698 90.6524 306.12 96.0039L308.796 95.7222Z" fill="white"/>
<path d="M338.793 94.7363C337.948 86.9908 343.44 80.0901 351.185 79.2452C358.931 78.4002 365.832 83.8925 366.677 91.6381C367.522 99.2428 362.17 106.144 354.565 107.129C346.82 108.115 339.778 102.764 338.793 95.018C338.933 94.8772 338.793 94.8772 338.793 94.7363Z" fill="white"/>
</svg>
